<svg width="560" height="637" viewBox="0 0 560 637" fill="none" xmlns="http://www.w3.org/2000/svg">
<g clip-path="url(#clip0_210_8)">
<path d="M279.99 610.56C139.72 610.56 26 496.85 26 356.57V26H533.97V356.58C533.98 496.85 420.26 610.56 279.99 610.56Z" fill="#C3001F"/>
<path d="M533.98 26V356.57C533.98 496.85 420.26 610.56 279.99 610.56C139.72 610.56 26 496.85 26 356.57V26H533.98Z" fill="#E9C667" stroke="#E9C567" stroke-width="52" stroke-miterlimit="10"/>
<path d="M279.99 610.56H276.83C138.3 610.56 26 498.26 26 359.73V356.57C26 496.85 139.72 610.56 279.99 610.56Z" fill="#E9C667"/>
<path d="M533.98 356.57V359.73C533.98 498.26 421.68 610.56 283.15 610.56H279.99C420.26 610.56 533.98 496.85 533.98 356.57Z" fill="#E9C667"/>
<path d="M283.15 610.56H276.84C138.3 610.56 26 498.26 26 359.73V26H533.97V359.73C533.98 498.26 421.68 610.56 283.15 610.56Z" stroke="#C3001F" stroke-width="25" stroke-miterlimit="10"/>
<path d="M121.26 234.27L127.37 234.61C130.09 234.61 132.04 234.28 133.23 233.63C133.4 233.52 133.55 233.46 133.68 233.46C133.81 233.46 133.87 233.66 133.87 234.05C133.87 234.45 133.63 235.1 133.15 236C132.44 237.39 131.42 238.08 130.09 238.08L127.75 238.04C127.52 238.04 127.38 238.17 127.33 238.42C127.13 242.58 127.03 247.08 127.03 251.9C127.03 256.73 127.23 260.36 127.63 262.79V263C127.63 263.71 126.96 264.27 125.61 264.7C124.26 265.12 123 265.34 121.81 265.34C121.24 265.34 120.96 265.18 120.96 264.87C120.96 264.79 121 264.59 121.09 264.28C121.4 263.66 121.68 260.64 121.92 255.24C122.16 249.83 122.28 245.76 122.28 243.01L122.2 238.38C122.2 238.21 122.12 238.11 121.94 238.08C121.35 237.97 120.67 237.91 119.9 237.91C118.37 237.91 117.24 238.22 116.5 238.84C116.3 238.98 116.11 239.05 115.93 239.05C115.75 239.05 115.66 238.94 115.66 238.71C115.66 238.37 115.84 237.9 116.19 237.31C116.55 236.71 116.92 236.2 117.32 235.78C118.27 234.78 119.59 234.27 121.26 234.27Z" fill="#C3001F"/>
<path d="M140.07 241.71L140.03 245.83C140.03 246 140.09 246.09 140.2 246.09C140.31 246.09 140.43 246.05 140.54 245.96C141.25 245.48 142.37 245.24 143.9 245.24C146.47 245.24 148.26 246.12 149.25 247.87C149.62 248.52 149.8 249.39 149.8 250.46C149.8 251.53 149.74 253.02 149.61 254.92C149.48 256.82 149.42 258.16 149.42 258.95C149.42 261.73 149.82 263.56 150.61 264.47C150.75 264.61 150.82 264.75 150.82 264.89C150.82 265.17 150.21 265.31 148.99 265.31C145.7 265.31 144.06 263.78 144.06 260.72C144.06 259.53 144.34 257.86 144.91 255.71C145.48 253.56 145.76 251.97 145.76 250.95C145.76 249.93 145.52 249.15 145.04 248.59C144.56 248.04 143.89 247.76 143.05 247.76C142.21 247.76 141.53 247.94 141.03 248.31C140.53 248.68 140.23 249.06 140.12 249.46L139.99 250.01C139.96 250.55 139.95 252.26 139.95 255.15C139.95 258.04 140.02 259.91 140.16 260.78C140.3 261.64 140.37 262.13 140.37 262.25C140.37 263.07 139.82 263.8 138.71 264.44C137.61 265.08 136.52 265.39 135.44 265.39C135.04 265.39 134.85 265.16 134.85 264.71L134.94 263.9C135.56 259.14 135.87 253.99 135.87 248.44C135.87 246.29 135.79 244.11 135.61 241.9L135.57 240.97C135.51 240.18 135.35 239.5 135.08 238.93C134.81 238.36 134.56 238 134.34 237.83L133.96 237.62C133.76 237.51 133.66 237.38 133.66 237.24C133.66 236.84 134.32 236.35 135.65 235.78C136.98 235.2 138.01 234.91 138.73 234.91C139.45 234.91 139.84 235.07 139.9 235.38C140.01 236.82 140.07 238.93 140.07 241.71Z" fill="#C3001F"/>
<path d="M166.35 259.37C166.35 260.45 166.13 261.39 165.69 262.2C165.25 263.01 164.76 263.6 164.2 263.98C163.65 264.36 163 264.67 162.27 264.89C161.34 265.17 160.44 265.31 159.59 265.31C157.21 265.31 155.46 264.42 154.33 262.64C153.2 260.86 152.63 258.58 152.63 255.82C152.63 253.06 153.33 250.6 154.73 248.45C156.13 246.3 158.23 245.22 161.04 245.22C163.59 245.22 165.32 246.11 166.22 247.9C166.59 248.58 166.77 249.22 166.77 249.83C166.77 250.44 166.74 250.92 166.69 251.28C166.63 251.63 166.43 252.16 166.1 252.87C165.76 253.58 165.31 254.22 164.74 254.78C164.17 255.35 163.28 255.88 162.06 256.39C160.84 256.9 159.41 257.24 157.77 257.41C157.54 257.41 157.43 257.51 157.43 257.71C157.43 257.97 157.52 258.34 157.71 258.84C157.89 259.34 158.1 259.75 158.32 260.09C158.94 260.88 159.86 261.28 161.08 261.28C162.3 261.28 163.33 260.88 164.18 260.09C164.63 259.66 165 259.14 165.28 258.52C165.39 258.29 165.54 258.18 165.73 258.18C165.91 258.18 166.06 258.33 166.17 258.65C166.3 258.96 166.35 259.2 166.35 259.37ZM157.1 253.72L157.14 254.78C157.14 254.95 157.25 255.03 157.48 255.03C158.39 254.94 159.18 254.71 159.86 254.33C160.54 253.95 161.05 253.52 161.39 253.03C162.07 251.98 162.44 251.08 162.49 250.31L162.53 249.8C162.53 248.27 161.92 247.51 160.7 247.51C159.79 247.51 159.06 247.91 158.49 248.7C157.56 249.96 157.1 251.63 157.1 253.72Z" fill="#C3001F"/>
<path d="M192.47 248.41C192.16 248.5 192 248.59 192 248.69C192 248.79 192.34 248.97 193.02 249.22C193.7 249.47 194.34 249.87 194.95 250.41C195.56 250.95 195.99 251.6 196.25 252.36C196.65 253.52 196.85 254.77 196.85 256.1C196.85 257.43 196.95 258.53 197.15 259.39C197.35 260.25 197.59 260.91 197.87 261.36C198.43 262.32 198.96 262.92 199.44 263.14L199.74 263.31C199.91 263.42 200 263.57 200 263.73C200 264.15 199.3 264.53 197.92 264.86C196.53 265.18 195.46 265.35 194.69 265.35C193.19 265.35 192.23 264.75 191.82 263.55C191.41 262.35 191.21 260.29 191.21 257.37V255.03C191.21 252.57 190.47 251 189 250.32C188.43 250.06 187.75 249.94 186.96 249.94H186.92C186.67 249.94 186.54 249.69 186.54 249.2C186.54 248.71 186.69 248.2 186.99 247.69C187.29 247.18 187.55 246.93 187.78 246.93C188.71 246.93 189.52 246.75 190.2 246.4C190.88 246.05 191.38 245.61 191.69 245.11C192.34 244.03 192.7 243.11 192.75 242.35V241.8C192.75 240.75 192.58 239.87 192.24 239.15C191.9 238.43 191.48 237.92 190.97 237.64C190.12 237.19 189.26 236.96 188.38 236.96C187.5 236.96 186.78 237.03 186.22 237.17C185.43 237.4 185.03 237.64 185.03 237.89C184.77 241.6 184.65 245.17 184.65 248.61C184.65 252.05 184.7 254.68 184.8 256.51C184.9 258.34 185 259.81 185.1 260.93C185.2 262.05 185.25 262.71 185.25 262.9C185.25 263.27 185.15 263.52 184.95 263.66C183.79 264.74 181.96 265.27 179.47 265.27C179.05 265.27 178.83 265.13 178.83 264.85C178.83 264.76 178.87 264.57 178.96 264.25C179.24 263.6 179.45 261.53 179.57 258.05C179.7 254.57 179.76 251.39 179.76 248.52C179.76 245.65 179.7 243.32 179.59 241.54C179.42 238.85 179.14 237.24 178.74 236.7C178.43 236.3 178.27 236.03 178.27 235.87C178.27 235.72 178.42 235.55 178.74 235.38C180.55 234.53 183.84 234.1 188.59 234.1C192.41 234.1 195.27 235.18 197.17 237.33C198.19 238.52 198.7 240 198.7 241.79C198.7 242.87 198.49 243.83 198.06 244.68C197.63 245.53 197.11 246.18 196.49 246.63C195.3 247.54 194.18 248.09 193.14 248.29L192.47 248.41Z" fill="#C3001F"/>
<path d="M214.98 259.37C214.98 260.45 214.76 261.39 214.32 262.2C213.88 263.01 213.39 263.6 212.83 263.98C212.28 264.36 211.63 264.67 210.9 264.89C209.96 265.17 209.07 265.31 208.22 265.31C205.84 265.31 204.09 264.42 202.95 262.64C201.82 260.86 201.25 258.58 201.25 255.82C201.25 253.06 201.95 250.6 203.35 248.45C204.75 246.3 206.85 245.22 209.66 245.22C212.21 245.22 213.94 246.11 214.84 247.9C215.21 248.58 215.39 249.22 215.39 249.83C215.39 250.44 215.36 250.92 215.31 251.28C215.25 251.63 215.05 252.16 214.71 252.87C214.37 253.58 213.92 254.22 213.35 254.78C212.78 255.35 211.89 255.88 210.67 256.39C209.45 256.9 208.02 257.24 206.38 257.41C206.15 257.41 206.04 257.51 206.04 257.71C206.04 257.97 206.13 258.34 206.32 258.84C206.5 259.34 206.71 259.75 206.94 260.09C207.56 260.88 208.48 261.28 209.7 261.28C210.92 261.28 211.95 260.88 212.8 260.09C213.25 259.66 213.62 259.14 213.9 258.52C214.01 258.29 214.16 258.18 214.35 258.18C214.53 258.18 214.68 258.33 214.79 258.65C214.92 258.96 214.98 259.2 214.98 259.37ZM205.72 253.72L205.76 254.78C205.76 254.95 205.87 255.03 206.1 255.03C207 254.94 207.8 254.71 208.48 254.33C209.16 253.95 209.67 253.52 210.01 253.03C210.69 251.98 211.06 251.08 211.11 250.31L211.15 249.8C211.15 248.27 210.54 247.51 209.32 247.51C208.41 247.51 207.68 247.91 207.11 248.7C206.19 249.96 205.72 251.63 205.72 253.72Z" fill="#C3001F"/>
<path d="M231.88 251.77L231.79 257.21C231.79 260.98 232.2 263.24 233.02 264C233.13 264.11 233.19 264.24 233.19 264.38C233.19 264.8 232.28 265.02 230.45 265.02C228.62 265.02 227.65 264.48 227.54 263.41C227.51 263.15 227.5 262.63 227.5 261.84L227.67 255.05C227.67 254.85 227.56 254.75 227.33 254.75C225.97 254.75 224.7 255.13 223.51 255.9C222.32 256.66 221.73 257.64 221.73 258.83C221.73 259.45 221.9 259.98 222.24 260.4C222.58 260.82 223 261.04 223.49 261.04C223.98 261.04 224.4 260.94 224.72 260.74C225.05 260.54 225.24 260.43 225.29 260.4C225.77 260.46 226.01 260.96 226.01 261.91C226.01 262.86 225.57 263.62 224.69 264.2C223.81 264.78 222.89 265.07 221.93 265.07C220.97 265.07 220.14 264.9 219.45 264.56C218.76 264.22 218.25 263.84 217.94 263.41C217.63 262.99 217.37 262.5 217.18 261.97C216.98 261.32 216.88 260.75 216.88 260.27C216.88 258.29 217.5 256.7 218.75 255.51C219.99 254.32 221.6 253.47 223.55 252.96C226.13 252.45 227.47 251.98 227.58 251.56C227.66 251.25 227.71 250.72 227.71 249.99C227.71 248.49 226.94 247.74 225.42 247.74C224.77 247.74 224.19 247.95 223.68 248.36C223.17 248.77 222.91 249.29 222.91 249.91L223.17 250.93C223.11 251.41 222.6 251.7 221.64 251.78L221.17 251.82C220.32 251.82 219.65 251.61 219.15 251.18C218.65 250.76 218.41 250.19 218.41 249.48C218.41 249.03 218.56 248.52 218.86 247.97C219.16 247.42 219.53 246.97 219.99 246.63C220.44 246.29 221.14 245.99 222.09 245.72C223.04 245.45 223.95 245.32 224.83 245.32C225.71 245.32 226.39 245.35 226.87 245.4C227.35 245.46 228.01 245.59 228.85 245.8C229.68 246.01 230.38 246.42 230.93 247.01C231.48 247.6 231.78 248.24 231.82 248.9C231.86 249.57 231.88 250.52 231.88 251.77Z" fill="#C3001F"/>
<path d="M240.75 240.22L240.49 255.81C240.49 260.68 240.64 263.6 240.96 264.56C241.05 264.73 241.09 264.9 241.09 265.07C241.09 265.41 240.68 265.58 239.86 265.58C239.04 265.58 238.13 265.37 237.12 264.96C236.11 264.55 235.61 264.02 235.61 263.37C236.18 259.41 236.46 254.11 236.46 247.49L236.29 240.99C236.23 240.2 236.07 239.52 235.8 238.95C235.53 238.38 235.27 238.02 235.01 237.85L234.67 237.64C234.47 237.53 234.37 237.4 234.37 237.26C234.37 236.86 234.99 236.38 236.22 235.8C237.45 235.22 238.65 234.93 239.81 234.93C240.26 234.93 240.52 235.09 240.58 235.4C240.7 236.11 240.75 237.73 240.75 240.22Z" fill="#C3001F"/>
<path d="M260.37 245.7V246.3H267.89V246.21C267.92 245.53 267.93 244.68 267.93 243.64C267.93 242.61 267.91 241.7 267.89 240.92C267.86 240.14 267.83 239.48 267.8 238.95C267.77 238.41 267.73 237.95 267.69 237.55C267.65 237.15 267.61 236.85 267.58 236.64C267.55 236.43 267.54 236.24 267.54 236.07C267.54 235.9 267.7 235.7 268.01 235.48C269.37 234.57 270.88 234.12 272.55 234.12C273.6 234.12 274.12 234.3 274.12 234.67C274.12 234.7 274.09 234.85 274.03 235.14C273.49 237.83 273.15 241.55 273.01 246.31C272.92 251.07 272.88 253.61 272.88 253.95C272.88 258.34 273.14 261.38 273.65 263.08C273.73 263.31 273.78 263.5 273.78 263.65C273.78 263.81 273.67 263.98 273.44 264.18C272.39 264.86 271.03 265.2 269.36 265.2C268.28 265.2 267.68 264.83 267.53 264.1C267.45 263.7 267.4 263.09 267.4 262.25C267.4 261.42 267.45 260.13 267.55 258.41C267.65 256.68 267.73 253.67 267.78 249.37H260.35C260.35 255.83 260.55 260.35 260.94 262.96C260.94 263.64 260.29 264.2 258.99 264.64C257.69 265.08 256.61 265.3 255.76 265.3C254.91 265.3 254.49 265.17 254.49 264.92C254.49 264.75 254.53 264.54 254.62 264.28C255.16 263.09 255.43 258.31 255.43 249.93V249.38H252.92C252.69 249.38 252.58 249.29 252.58 249.12C252.58 249.06 252.64 248.84 252.75 248.46C252.86 248.08 253.13 247.63 253.54 247.12C253.95 246.61 254.41 246.36 254.92 246.36H255.39C255.39 240.78 255.07 237.57 254.41 236.72L254.24 236.46C254.07 236.32 253.98 236.14 253.98 235.93C253.98 235.72 254.14 235.54 254.45 235.4C254.87 235.14 255.63 234.89 256.72 234.64C257.81 234.38 258.79 234.26 259.67 234.26C260.55 234.26 260.99 234.46 260.99 234.85V234.98C260.67 237.9 260.46 241.48 260.37 245.7Z" fill="#C3001F"/>
<path d="M281.69 248.5C280.95 248.53 280.42 248.55 280.1 248.56C279.77 248.58 279.61 248.5 279.61 248.33C279.61 248.16 279.7 247.99 279.87 247.82C281.68 246.15 284.74 245.31 289.04 245.31C290.51 245.31 291.67 245.44 292.52 245.69L292.94 245.82C293.28 245.96 293.45 246.12 293.45 246.29C293.45 246.43 293.35 246.55 293.15 246.63C292.39 246.86 291.65 247.22 290.94 247.71C290.23 248.2 289.88 248.55 289.88 248.75L290.13 249.05C291.04 249.56 291.74 250.37 292.23 251.47C292.72 252.57 293 253.55 293.06 254.4L293.14 255.72C293.14 258.52 292.36 260.83 290.8 262.64C289.24 264.45 287.12 265.36 284.43 265.36C283.07 265.36 281.9 265.12 280.9 264.64C279.91 264.16 279.18 263.61 278.71 263C278.24 262.39 277.87 261.71 277.59 260.94C277.25 259.89 277.08 258.81 277.08 257.69C277.08 256.57 277.27 255.45 277.65 254.31C278.03 253.18 278.47 252.34 278.97 251.8C279.46 251.26 280.02 250.82 280.65 250.48C281.44 250.06 282.08 249.84 282.56 249.84C283.04 249.84 283.28 249.94 283.28 250.14L283.03 250.57C282.41 251.31 281.96 252.27 281.69 253.46C281.42 254.65 281.29 255.7 281.29 256.62C281.29 257.54 281.4 258.45 281.63 259.36C281.86 260.27 282.11 260.94 282.39 261.38C282.67 261.82 283 262.15 283.37 262.38C283.91 262.72 284.47 262.89 285.07 262.89C285.66 262.89 286.24 262.66 286.81 262.19C287.38 261.72 287.79 261.11 288.04 260.34C288.55 258.92 288.8 257.47 288.8 255.97C288.8 253.59 288.2 251.75 287 250.45C285.8 249.15 284.04 248.5 281.69 248.5Z" fill="#C3001F"/>
<path d="M296.21 264.81C296.72 261.75 296.97 258.09 296.97 253.81C296.97 249.54 296.84 246.76 296.59 245.49C296.59 245.12 297.01 244.94 297.86 244.94C299.16 244.94 300.03 245.43 300.45 246.43C300.48 246.52 300.55 246.56 300.66 246.56C300.77 246.56 300.86 246.53 300.92 246.47C301.8 245.56 303.16 245.11 305 245.11C306.84 245.11 308.3 245.58 309.37 246.51C310.45 247.44 310.98 248.8 310.98 250.59C310.98 251.67 310.89 253.2 310.7 255.18C310.52 257.16 310.42 258.63 310.42 259.6C310.42 261.89 310.8 263.55 311.57 264.57C311.68 264.71 311.74 264.85 311.74 264.99C311.74 265.36 311.34 265.54 310.55 265.54C307.04 265.54 305.28 263.98 305.28 260.87C305.28 259.68 305.55 258.03 306.09 255.9C306.63 253.78 306.9 252.16 306.9 251.06C306.9 248.8 305.97 247.66 304.1 247.66C303.19 247.66 302.51 247.93 302.04 248.47C301.57 249.01 301.31 249.62 301.25 250.32C301.19 251.01 301.16 252.32 301.16 254.25C301.16 257.19 301.26 259.76 301.46 261.94L301.54 262.87C301.54 263.66 301.02 264.28 299.99 264.72C298.96 265.16 298.07 265.38 297.32 265.38C296.59 265.36 296.21 265.17 296.21 264.81Z" fill="#C3001F"/>
<path d="M327.42 259.37C327.42 260.45 327.2 261.39 326.76 262.2C326.32 263.01 325.83 263.6 325.27 263.98C324.72 264.36 324.07 264.67 323.34 264.89C322.41 265.17 321.51 265.31 320.66 265.31C318.28 265.31 316.53 264.42 315.39 262.64C314.26 260.86 313.69 258.58 313.69 255.82C313.69 253.06 314.39 250.6 315.79 248.45C317.19 246.3 319.29 245.22 322.1 245.22C324.65 245.22 326.38 246.11 327.28 247.9C327.65 248.58 327.83 249.22 327.83 249.83C327.83 250.44 327.8 250.92 327.75 251.28C327.69 251.63 327.49 252.16 327.15 252.87C326.81 253.58 326.36 254.22 325.79 254.78C325.22 255.35 324.33 255.88 323.11 256.39C321.89 256.9 320.46 257.24 318.82 257.41C318.59 257.41 318.48 257.51 318.48 257.71C318.48 257.97 318.57 258.34 318.76 258.84C318.94 259.34 319.15 259.75 319.38 260.09C320 260.88 320.92 261.28 322.14 261.28C323.36 261.28 324.39 260.88 325.24 260.09C325.69 259.66 326.06 259.14 326.34 258.52C326.45 258.29 326.6 258.18 326.79 258.18C326.97 258.18 327.12 258.33 327.24 258.65C327.37 258.96 327.42 259.2 327.42 259.37ZM318.17 253.72L318.21 254.78C318.21 254.95 318.32 255.03 318.55 255.03C319.46 254.94 320.25 254.71 320.93 254.33C321.61 253.95 322.12 253.52 322.46 253.03C323.14 251.98 323.51 251.08 323.56 250.31L323.6 249.8C323.6 248.27 322.99 247.51 321.77 247.51C320.86 247.51 320.13 247.91 319.56 248.7C318.63 249.96 318.17 251.63 318.17 253.72Z" fill="#C3001F"/>
<path d="M338.25 276.27C338.25 276.61 338.08 276.78 337.74 276.78H337.7C336.77 276.78 335.71 276.45 334.54 275.8C333.36 275.15 332.78 274.4 332.78 273.55C332.78 272.7 333.32 271.22 334.39 269.11C335.47 267 336 265.59 336 264.88C336 264.12 335.63 262.74 334.9 260.76C333.97 258.19 333.22 256.09 332.67 254.48C332.12 252.87 331.52 251.44 330.89 250.21C330.25 248.98 329.79 248.25 329.51 248.02L329.09 247.72C328.78 247.55 328.62 247.36 328.62 247.17C328.62 246.78 329.24 246.37 330.47 245.96C331.7 245.55 332.78 245.34 333.72 245.34C334.14 245.34 334.5 245.68 334.78 246.36C335.29 247.69 335.84 249.53 336.43 251.88C337.87 256.69 338.78 259.1 339.15 259.1C339.4 259.1 339.92 258.11 340.7 256.13C341.48 254.15 341.87 252.55 341.87 251.33C341.87 249.21 341.25 247.96 340 247.59C339.72 247.53 339.58 247.39 339.58 247.16C339.58 246.65 340.24 246.16 341.58 245.7C342.91 245.23 344.11 245 345.19 245C346.12 245 346.59 245.61 346.59 246.83C346.59 247.76 346.39 248.85 346 250.1C345.6 251.35 345.24 252.33 344.9 253.05C344.56 253.77 343.72 255.44 342.37 258.06C341.02 260.68 339.91 262.98 339.04 264.96C338.08 267.34 337.6 269.76 337.6 272.22C337.6 273.52 337.71 274.5 337.94 275.15C338.14 275.82 338.25 276.19 338.25 276.27Z" fill="#C3001F"/>
<path d="M375.2 254.78C375.74 254.78 376.01 255.46 376.01 256.82C376.01 258.18 375.75 259.4 375.25 260.47C374.74 261.55 374.13 262.38 373.4 262.98C372.68 263.57 371.86 264.06 370.96 264.42C367.93 265.75 365.1 265.72 362.47 264.34C361.14 263.63 360.12 262.79 359.41 261.81C358.7 260.83 358.14 259.67 357.71 258.31C357.06 256.27 356.73 254.14 356.73 251.9C356.73 249.66 356.94 247.57 357.37 245.61C357.8 243.66 358.45 241.8 359.32 240.03C360.2 238.26 361.44 236.84 363.06 235.76C364.68 234.68 366.54 234.15 368.67 234.15C369.58 234.15 370.52 234.3 371.49 234.6C372.47 234.9 373.27 235.27 373.89 235.7C374.51 236.14 375.06 236.81 375.55 237.72C376.03 238.63 376.27 239.69 376.27 240.9C376.27 242.2 375.96 243.38 375.34 244.43C375.06 244.91 374.6 245.34 373.98 245.72C373.36 246.1 372.62 246.29 371.77 246.29C370.47 246.29 369.55 245.71 369.01 244.55C368.78 244.1 368.67 243.6 368.67 243.06C368.67 242.52 368.85 242.21 369.22 242.13C369.62 242.02 369.98 241.71 370.32 241.2C370.66 240.69 370.83 240.1 370.83 239.42C370.83 238.88 370.69 238.41 370.41 238.02C369.87 237.31 369.09 236.96 368.07 236.96C367.05 236.96 366.12 237.43 365.29 238.36C364.45 239.29 363.82 240.47 363.4 241.88C362.55 244.71 362.13 247.31 362.13 249.69C362.13 252.07 362.46 253.98 363.11 255.42C363.9 257.2 364.91 258.39 366.13 258.99C366.89 259.36 367.77 259.54 368.76 259.54C370.43 259.54 371.93 258.79 373.26 257.29C373.83 256.69 374.29 255.99 374.66 255.17C374.78 254.91 374.97 254.78 375.2 254.78Z" fill="#C3001F"/>
<path d="M393.5 251.77L393.41 257.21C393.41 260.98 393.82 263.24 394.64 264C394.75 264.11 394.81 264.24 394.81 264.38C394.81 264.8 393.9 265.02 392.07 265.02C390.24 265.02 389.27 264.48 389.16 263.41C389.13 263.15 389.12 262.63 389.12 261.84L389.29 255.05C389.29 254.85 389.18 254.75 388.95 254.75C387.59 254.75 386.32 255.13 385.13 255.9C383.94 256.66 383.35 257.64 383.35 258.83C383.35 259.45 383.52 259.98 383.86 260.4C384.2 260.82 384.62 261.04 385.11 261.04C385.6 261.04 386.02 260.94 386.34 260.74C386.66 260.54 386.86 260.43 386.91 260.4C387.39 260.46 387.63 260.96 387.63 261.91C387.63 262.86 387.19 263.62 386.31 264.2C385.43 264.78 384.51 265.07 383.55 265.07C382.59 265.07 381.76 264.9 381.07 264.56C380.38 264.22 379.87 263.84 379.56 263.41C379.25 262.99 378.99 262.5 378.8 261.97C378.6 261.32 378.5 260.75 378.5 260.27C378.5 258.29 379.12 256.7 380.37 255.51C381.61 254.32 383.22 253.47 385.17 252.96C387.75 252.45 389.09 251.98 389.2 251.56C389.28 251.25 389.33 250.72 389.33 249.99C389.33 248.49 388.56 247.74 387.04 247.74C386.39 247.74 385.81 247.95 385.3 248.36C384.79 248.77 384.53 249.29 384.53 249.91L384.79 250.93C384.73 251.41 384.22 251.7 383.26 251.78L382.79 251.82C381.94 251.82 381.27 251.61 380.77 251.18C380.27 250.76 380.03 250.19 380.03 249.48C380.03 249.03 380.18 248.52 380.48 247.97C380.78 247.42 381.15 246.97 381.61 246.63C382.06 246.29 382.76 245.99 383.71 245.72C384.66 245.45 385.57 245.32 386.45 245.32C387.33 245.32 388.01 245.35 388.49 245.4C388.97 245.46 389.63 245.59 390.47 245.8C391.3 246.01 392 246.42 392.55 247.01C393.1 247.6 393.4 248.24 393.44 248.9C393.48 249.57 393.5 250.52 393.5 251.77Z" fill="#C3001F"/>
<path d="M406.24 250.75C406.13 250.86 406.07 250.98 406.07 251.11C406.07 251.24 406.33 251.36 406.86 251.47C407.38 251.58 407.96 251.89 408.58 252.4C409.2 252.91 409.67 253.46 409.98 254.06C410.57 255.22 410.9 256.24 410.96 257.12L411 257.67C411.14 260.98 411.75 263.25 412.83 264.46C412.97 264.66 413.04 264.8 413.04 264.88C413.04 265.19 412.64 265.35 411.85 265.35C409.47 265.35 407.96 264.85 407.31 263.86C406.97 263.46 406.8 262.23 406.8 260.17V259.11C406.8 256.48 406.48 254.65 405.82 253.63C405.48 253.15 405.06 252.91 404.57 252.91C404.07 252.91 403.56 253.34 403.02 254.21C402.48 255.07 402.21 255.8 402.21 256.4C402.21 258.78 402.27 260.43 402.38 261.37C402.49 262.3 402.55 262.79 402.55 262.82C402.55 263.64 401.99 264.28 400.87 264.73C399.75 265.18 398.7 265.41 397.71 265.41C397.34 265.41 397.16 265.18 397.16 264.73V264.56C397.84 261.08 398.18 255.59 398.18 248.08C398.18 245.62 398.12 243.54 398.01 241.84L397.92 240.99C397.86 240.2 397.7 239.52 397.43 238.95C397.16 238.38 396.9 238.02 396.64 237.85L396.3 237.64C396.1 237.53 396 237.4 396 237.26C396 236.81 396.68 236.3 398.04 235.73C399.4 235.16 400.57 234.88 401.56 234.88C402.01 234.91 402.25 235.08 402.28 235.39C402.42 236.52 402.49 238.85 402.49 242.37C402.49 245.89 402.4 248.71 402.23 250.8C402.23 251.14 402.28 251.31 402.4 251.31C402.51 251.31 402.69 251.15 402.93 250.82C403.17 250.49 403.59 249.98 404.2 249.27C404.81 248.56 405.63 247.74 406.66 246.81C407.69 245.88 408.53 245.41 409.17 245.41C409.81 245.41 410.44 245.57 411.06 245.88C411.68 246.19 411.99 246.49 411.99 246.77L411.52 247.07C409.93 247.65 408.16 248.88 406.24 250.75Z" fill="#C3001F"/>
<path d="M428.11 259.37C428.11 260.45 427.89 261.39 427.45 262.2C427.01 263.01 426.52 263.6 425.96 263.98C425.41 264.36 424.76 264.67 424.03 264.89C423.1 265.17 422.2 265.31 421.35 265.31C418.97 265.31 417.22 264.42 416.08 262.64C414.95 260.86 414.38 258.58 414.38 255.82C414.38 253.06 415.08 250.6 416.48 248.45C417.88 246.3 419.98 245.22 422.79 245.22C425.34 245.22 427.07 246.11 427.97 247.9C428.34 248.58 428.52 249.22 428.52 249.83C428.52 250.44 428.49 250.92 428.44 251.28C428.38 251.63 428.18 252.16 427.84 252.87C427.5 253.58 427.05 254.22 426.48 254.78C425.91 255.35 425.02 255.88 423.8 256.39C422.58 256.9 421.15 257.24 419.51 257.41C419.28 257.41 419.17 257.51 419.17 257.71C419.17 257.97 419.26 258.34 419.45 258.84C419.63 259.34 419.84 259.75 420.07 260.09C420.69 260.88 421.61 261.28 422.83 261.28C424.05 261.28 425.08 260.88 425.93 260.09C426.38 259.66 426.75 259.14 427.03 258.52C427.14 258.29 427.29 258.18 427.48 258.18C427.66 258.18 427.81 258.33 427.93 258.65C428.05 258.96 428.11 259.2 428.11 259.37ZM418.85 253.72L418.89 254.78C418.89 254.95 419 255.03 419.23 255.03C420.14 254.94 420.93 254.71 421.61 254.33C422.29 253.95 422.8 253.52 423.14 253.03C423.82 251.98 424.19 251.08 424.24 250.31L424.28 249.8C424.28 248.27 423.67 247.51 422.45 247.51C421.54 247.51 420.81 247.91 420.24 248.7C419.32 249.96 418.85 251.63 418.85 253.72Z" fill="#C3001F"/>
<path d="M444.33 258.69C444.33 259.91 444.1 260.97 443.63 261.88C443.16 262.79 442.63 263.45 442.04 263.88C441.45 264.3 440.74 264.64 439.92 264.9C438.84 265.24 437.87 265.41 436.99 265.41C435.15 265.41 433.62 265.05 432.4 264.33C431.18 263.61 430.57 262.45 430.57 260.87C430.57 259.94 430.83 259.17 431.34 258.58C432.13 257.7 433.08 257.26 434.18 257.26C434.52 257.26 434.69 257.42 434.69 257.73C434.69 257.76 434.63 257.98 434.5 258.39C434.37 258.8 434.31 259.32 434.31 259.94C434.31 260.56 434.56 261.11 435.05 261.6C435.54 262.08 436.15 262.32 436.85 262.32C437.56 262.32 438.12 262.2 438.55 261.96C438.97 261.72 439.27 261.41 439.44 261.05C439.7 260.54 439.82 260.06 439.82 259.61C439.82 258.79 439.41 258.08 438.59 257.49C437.77 256.89 436.86 256.43 435.87 256.09C434.88 255.75 433.97 255.18 433.15 254.39C432.33 253.6 431.92 252.61 431.92 251.42C431.92 249.38 432.56 247.85 433.85 246.83C435.14 245.81 436.89 245.3 439.09 245.3C440.05 245.3 441.07 245.43 442.13 245.7C443.19 245.97 443.72 246.42 443.72 247.06C443.72 247.7 443.61 248.28 443.4 248.82C443.19 249.36 442.93 249.63 442.61 249.63C442.44 249.63 442.33 249.57 442.27 249.44C442.21 249.31 442.11 249.16 441.97 248.99C441.83 248.82 441.49 248.6 440.95 248.33C440.41 248.06 439.95 247.93 439.57 247.93C439.19 247.93 438.93 247.94 438.81 247.95C438.68 247.97 438.46 248.01 438.15 248.08C437.84 248.15 437.56 248.26 437.3 248.4C436.65 248.77 436.32 249.31 436.32 250.01C436.32 250.46 436.42 250.8 436.62 251.01C436.82 251.22 436.97 251.39 437.09 251.5C437.2 251.61 437.4 251.75 437.69 251.9C437.97 252.06 438.17 252.16 438.28 252.22C438.39 252.28 438.65 252.4 439.04 252.58C439.44 252.76 439.69 252.88 439.8 252.94C442.83 254.33 444.33 256.26 444.33 258.69Z" fill="#C3001F"/>
<path d="M118.89 170.06C118.19 167.51 116.34 159.23 113.33 145.21C110.32 131.19 107.25 120.01 104.12 111.67C100.99 103.33 97.28 97.77 93 94.99C91.84 94.41 91.26 93.66 91.26 92.73C91.26 90.53 94.39 88.73 100.64 87.34C106.9 85.95 111.73 85.25 115.15 85.25C118.57 85.25 120.62 86.23 121.32 88.2C123.41 92.49 126.07 102.1 129.31 117.05C135.91 148.33 140.78 168.03 143.91 176.14C144.61 177.76 145.47 178.57 146.52 178.57C147.57 178.57 148.63 177.56 149.73 175.53C150.83 173.5 152.34 170.61 154.25 166.84C156.16 163.08 158.74 156.39 161.98 146.77C165.22 137.16 166.85 128.81 166.85 121.74C166.85 110.85 163.26 103.15 156.07 98.63C155.49 97.94 155.2 97.18 155.2 96.37C155.2 93.94 158.56 91.5 165.28 89.07C172 86.64 178.08 85.42 183.53 85.42C187.12 85.42 188.92 87.1 188.92 90.46C188.92 100.89 186.83 112.97 182.66 126.69C178.49 140.42 173.51 153.17 167.71 164.92C161.92 176.68 156.53 186.85 151.55 195.42C143.67 208.75 138.69 215.41 136.6 215.41C135.56 215.41 134.57 214.6 133.65 212.98C130.17 208 126 196.59 121.14 178.74L118.89 170.06Z" fill="#C3001F"/>
<path d="M242.63 189.7C242.63 194.1 241.73 197.96 239.94 201.26C238.14 204.56 236.12 206.99 233.86 208.56C231.6 210.12 228.96 211.37 225.95 212.3C222.13 213.46 218.48 214.04 215 214.04C205.27 214.04 198.08 210.39 193.45 203.09C188.82 195.79 186.5 186.49 186.5 175.2C186.5 163.9 189.37 153.85 195.1 145.05C200.84 136.25 209.44 131.84 220.91 131.84C231.34 131.84 238.4 135.49 242.11 142.79C243.61 145.57 244.37 148.21 244.37 150.7C244.37 153.19 244.25 155.16 244.02 156.61C243.79 158.06 242.98 160.23 241.59 163.13C240.2 166.03 238.35 168.63 236.03 170.95C233.71 173.27 230.06 175.47 225.08 177.55C220.1 179.64 214.25 181.02 207.53 181.72C206.6 181.72 206.14 182.13 206.14 182.94C206.14 183.98 206.51 185.52 207.27 187.54C208.02 189.57 208.86 191.28 209.79 192.67C212.34 195.91 216.11 197.54 221.09 197.54C226.07 197.54 230.3 195.92 233.77 192.67C235.62 190.93 237.13 188.79 238.29 186.24C238.75 185.31 239.36 184.85 240.11 184.85C240.86 184.85 241.47 185.49 241.93 186.76C242.39 188.02 242.63 189 242.63 189.7ZM204.74 166.59L204.91 170.94C204.91 171.64 205.37 171.98 206.3 171.98C210.01 171.63 213.25 170.68 216.03 169.11C218.81 167.55 220.9 165.78 222.29 163.81C225.07 159.53 226.57 155.82 226.81 152.69L226.98 150.6C226.98 144.34 224.49 141.21 219.51 141.21C215.8 141.21 212.79 142.83 210.47 146.08C206.65 151.18 204.74 158.01 204.74 166.59Z" fill="#C3001F"/>
<path d="M307.45 164.15L308.14 170.23C308.14 172.43 306.05 173.53 301.88 173.53C293.42 173.53 289.19 170.34 289.19 163.97C289.19 162.47 289.6 160.38 290.41 157.71C291.22 155.05 291.63 152.73 291.63 150.76C291.63 148.79 291.05 147.08 289.89 145.63C288.73 144.18 287.05 143.46 284.85 143.46C282.65 143.46 280.77 144.24 279.2 145.81C277.63 147.37 276.68 148.97 276.33 150.59L275.63 153.02C274.93 156.61 274.59 162.61 274.59 171.01C274.59 179.41 274.7 186.02 274.94 190.82C275.17 195.63 275.4 198.93 275.64 200.73C275.87 202.53 275.99 203.6 275.99 203.94C275.99 206.84 274.19 209.18 270.6 210.98C267.01 212.78 263.42 213.67 259.82 213.67C256.23 213.67 254.43 212.91 254.43 211.41L255.3 206.02C256.92 195.94 257.73 182.79 257.73 166.57C257.73 150.35 257.15 139.34 255.99 133.55C255.99 132.16 257.21 131.46 259.64 131.46C265.9 131.46 270.07 133.61 272.15 137.89C272.26 138.35 272.47 138.58 272.76 138.58C273.05 138.58 273.83 138.06 275.11 137.02C278.93 133.89 283.45 132.33 288.66 132.33C291.9 132.33 295.15 132.97 298.39 134.24C304.99 136.91 308.3 142.47 308.3 150.92L307.45 164.15Z" fill="#C3001F"/>
<path d="M324.13 205.51L326.04 165.02C326.04 155.4 324.94 148.86 322.74 145.38C322.04 144.22 321.23 143.35 320.31 142.77C319.61 142.54 319.27 142.08 319.27 141.38C319.27 139.3 322.23 137.27 328.13 135.3C334.04 133.33 338.35 132.34 341.08 132.34C343.8 132.34 345.22 133.04 345.34 134.43C345.34 136.75 345.02 143.32 344.38 154.16C343.74 164.99 343.42 176.38 343.42 188.31C343.42 200.24 344.12 207.66 345.51 210.55C345.86 211.13 346.03 211.71 346.03 212.29C346.03 213.79 343.83 214.55 339.43 214.55C335.03 214.55 330.51 213.39 325.87 211.07C324.71 210.5 324.13 208.64 324.13 205.51ZM338.04 117.75L333.87 117.58C330.74 117.58 328.71 118.34 327.79 119.84C327.56 120.19 327.27 120.36 326.92 120.36C325.41 120.36 324.66 117.78 324.66 112.63C324.66 107.48 325.44 104.2 327.01 102.81C328.57 101.42 331.29 100.73 335.18 100.73C339.06 100.73 341.7 101.4 343.09 102.73C344.48 104.06 345.18 106.29 345.18 109.42C345.18 112.55 344.66 114.72 343.62 115.94C342.55 117.14 340.7 117.75 338.04 117.75Z" fill="#C3001F"/>
<path d="M358.02 142.95L358.54 136C358.65 134.96 359.47 134.43 360.97 134.43H367.05L366.35 120.53V119.83C366.35 117.17 368.38 114.62 372.43 112.18C376.48 109.75 380.19 108.53 383.55 108.53C384.59 108.53 385.11 109 385.11 109.92V110.09C384.65 113.22 384.18 121.27 383.72 134.25C388.82 134.25 392.06 134.14 393.45 133.9C394.84 133.67 395.59 133.55 395.71 133.55C396.52 133.55 396.93 134.25 396.93 135.64C396.93 137.03 396.29 138.8 395.02 140.94C393.74 143.09 392.35 144.21 390.85 144.33H383.55C383.43 148.27 383.38 154.9 383.38 164.23C383.38 173.56 383.47 181.23 383.64 187.26C383.81 193.28 384.02 197.83 384.25 200.9C384.48 203.97 384.74 206.43 385.03 208.29C385.32 210.14 385.55 211.47 385.73 212.29C385.9 213.1 385.99 213.62 385.99 213.85C385.99 215.01 385.24 215.64 383.73 215.76C379.21 215.76 374.72 215.12 370.26 213.85C365.8 212.57 363.57 210.38 363.57 207.25C366 187.79 367.22 166.87 367.22 144.51C364.09 144.51 361.72 144.63 360.1 144.86H359.93C358.89 144.86 358.25 144.23 358.02 142.95Z" fill="#C3001F"/>
<path d="M420.58 145.21C417.56 145.33 415.39 145.41 414.06 145.47C412.73 145.53 412.06 145.21 412.06 144.51C412.06 143.81 412.41 143.12 413.1 142.42C420.51 135.59 433.03 132.17 450.64 132.17C456.66 132.17 461.42 132.69 464.89 133.73L466.63 134.25C468.02 134.83 468.72 135.47 468.72 136.16C468.72 136.74 468.31 137.2 467.5 137.55C464.37 138.48 461.36 139.96 458.46 141.98C455.56 144.01 454.11 145.43 454.11 146.24L455.15 147.46C458.86 149.55 461.72 152.85 463.75 157.37C465.78 161.89 466.91 165.89 467.14 169.36L467.49 174.75C467.49 186.22 464.3 195.66 457.93 203.08C451.56 210.5 442.87 214.2 431.86 214.2C426.3 214.2 421.49 213.21 417.44 211.25C413.38 209.28 410.4 207.05 408.49 204.56C406.58 202.07 405.04 199.26 403.88 196.13C402.49 191.84 401.79 187.41 401.79 182.83C401.79 178.26 402.57 173.65 404.14 169.01C405.7 164.38 407.5 160.96 409.53 158.76C411.56 156.56 413.85 154.76 416.39 153.37C419.63 151.63 422.24 150.76 424.21 150.76C426.18 150.76 427.16 151.17 427.16 151.98L426.12 153.72C423.57 156.73 421.75 160.67 420.65 165.54C419.55 170.41 419 174.72 419 178.49C419 182.26 419.46 185.99 420.39 189.7C421.32 193.41 422.36 196.16 423.52 197.96C424.68 199.76 426.01 201.12 427.52 202.04C429.72 203.43 432.04 204.12 434.47 204.12C436.9 204.12 439.28 203.16 441.6 201.25C443.92 199.34 445.6 196.82 446.64 193.69C448.72 187.9 449.77 181.93 449.77 175.79C449.77 166.06 447.31 158.53 442.38 153.2C437.47 147.88 430.2 145.21 420.58 145.21Z" fill="#C3001F"/>
<path d="M144.74 481.41C144.44 481.24 144.25 481.19 144.17 481.26C144.09 481.34 144.19 481.74 144.47 482.47C144.75 483.19 144.89 484 144.88 484.9C144.87 485.79 144.64 486.64 144.19 487.44C143.51 488.65 142.61 489.79 141.51 490.83C140.4 491.87 139.56 492.81 138.98 493.64C138.4 494.47 138.03 495.17 137.86 495.75C137.47 496.94 137.35 497.81 137.51 498.36L137.58 498.72C137.61 498.94 137.55 499.12 137.41 499.25C137.06 499.58 136.24 499.34 134.96 498.52C133.68 497.7 132.76 496.99 132.21 496.4C131.12 495.24 130.92 494.03 131.63 492.77C132.33 491.51 133.9 489.74 136.34 487.45L138.29 485.62C140.35 483.69 141.12 481.89 140.62 480.22C140.42 479.58 140.03 478.96 139.45 478.34L139.42 478.31C139.23 478.11 139.35 477.82 139.76 477.43C140.17 477.04 140.7 476.76 141.34 476.59C141.98 476.42 142.38 476.42 142.55 476.6C143.23 477.32 143.96 477.81 144.75 478.06C145.54 478.31 146.26 478.35 146.91 478.2C148.28 477.86 149.3 477.41 149.98 476.86L150.44 476.43C151.31 475.61 151.93 474.78 152.28 473.95C152.64 473.12 152.74 472.4 152.61 471.78C152.37 470.77 151.93 469.92 151.29 469.24C150.65 468.56 150.07 468.06 149.54 467.73C148.77 467.29 148.29 467.18 148.07 467.38C144.79 470.09 141.72 472.79 138.85 475.49C135.98 478.19 133.82 480.29 132.37 481.79C130.92 483.3 129.76 484.53 128.9 485.48C128.04 486.43 127.53 486.99 127.36 487.14C127.05 487.43 126.77 487.55 126.51 487.51C124.77 487.45 122.99 486.46 121.18 484.53C120.87 484.2 120.83 483.93 121.07 483.7C121.14 483.63 121.34 483.51 121.66 483.33C122.41 483.04 124.28 481.58 127.28 478.95C130.28 476.32 132.97 473.88 135.37 471.63C137.77 469.38 139.67 467.51 141.07 466.02C143.19 463.78 144.33 462.3 144.49 461.57C144.59 461.02 144.71 460.68 144.84 460.56C144.97 460.44 145.22 460.43 145.59 460.54C147.62 461.28 150.36 463.49 153.82 467.17C156.6 470.13 157.78 473.18 157.37 476.34C157.12 478.06 156.25 479.62 154.76 481.02C153.86 481.86 152.91 482.45 151.89 482.79C150.87 483.13 149.95 483.23 149.12 483.1C147.5 482.89 146.22 482.46 145.3 481.8L144.74 481.41Z" fill="#C3001F"/>
<path d="M165.82 496.2C163.13 498.5 160.02 501.7 156.49 505.81C153.89 508.83 152.3 510.92 151.7 512.08L151.43 512.68C151.16 513 150.77 512.94 150.26 512.51C148.5 511 147.96 509.61 148.61 508.34C148.69 508.2 148.69 508.09 148.61 508.02C148.53 507.95 148.41 507.94 148.26 507.98C146.69 508.38 145.16 507.94 143.68 506.67C142.86 505.97 142.19 505.01 141.68 503.8C141.36 503.06 141.33 502.2 141.56 501.23C141.8 500.26 142.34 499.28 143.18 498.3L150.63 490.67C152.09 488.97 152.96 487.63 153.25 486.65C153.37 486.28 153.46 486.06 153.52 485.99C153.65 485.84 153.79 485.79 153.94 485.84C154.41 486.03 154.93 486.37 155.5 486.86C157.71 488.76 157.97 490.69 156.29 492.66C155.76 493.27 154.32 494.47 151.98 496.26C149.63 498.05 148.06 499.4 147.27 500.32C146.48 501.24 146.06 502.11 146.01 502.93C145.96 503.75 146.28 504.44 146.95 505.02C147.62 505.6 148.37 505.8 149.21 505.61C150.04 505.43 150.71 505.11 151.22 504.65L151.99 503.96C152.82 503.18 154.16 501.71 156.02 499.54C157.88 497.38 158.99 495.95 159.36 495.27C159.73 494.59 159.98 494.17 160.11 494.02C160.64 493.41 161.51 493.31 162.73 493.74C163.95 494.17 164.92 494.69 165.65 495.32C166.02 495.61 166.07 495.9 165.82 496.2Z" fill="#C3001F"/>
<path d="M170.53 518.03C169.72 519.16 168.81 520.01 167.8 520.56C166.79 521.12 165.89 521.4 165.1 521.43C164.3 521.46 163.47 521.34 162.59 521.07C161.43 520.72 160.48 520.27 159.72 519.73C158.13 518.59 157.05 517.31 156.48 515.89C155.91 514.47 156.15 513.02 157.21 511.54C157.83 510.67 158.56 510.12 159.4 509.88C160.67 509.55 161.78 509.73 162.73 510.41C163.02 510.62 163.07 510.87 162.86 511.16C162.84 511.19 162.64 511.35 162.26 511.65C161.88 511.95 161.48 512.39 161.06 512.97C160.65 513.55 160.49 514.22 160.6 514.97C160.71 515.72 161.07 516.32 161.68 516.76C162.29 517.2 162.86 517.44 163.39 517.47C163.92 517.51 164.38 517.41 164.77 517.17C165.33 516.85 165.76 516.48 166.06 516.06C166.61 515.3 166.72 514.38 166.41 513.32C166.1 512.26 165.62 511.26 164.99 510.33C164.36 509.4 163.95 508.31 163.77 507.07C163.59 505.83 163.89 504.65 164.69 503.54C166.05 501.64 167.62 500.62 169.41 500.47C171.2 500.32 173.05 500.92 174.96 502.29C175.79 502.89 176.58 503.64 177.31 504.54C178.05 505.45 178.2 506.2 177.78 506.79C177.36 507.38 176.87 507.86 176.33 508.23C175.79 508.6 175.38 508.69 175.11 508.49C174.96 508.39 174.91 508.26 174.94 508.1C174.98 507.95 174.99 507.75 174.98 507.5C174.97 507.25 174.82 506.84 174.54 506.26C174.25 505.68 173.95 505.27 173.62 505.03C173.29 504.79 173.07 504.64 172.95 504.58C172.83 504.52 172.61 504.42 172.3 504.29C171.98 504.16 171.67 504.09 171.35 504.06C170.54 504 169.9 504.3 169.43 504.96C169.13 505.38 168.99 505.75 169.02 506.07C169.05 506.39 169.07 506.64 169.1 506.81C169.12 506.99 169.2 507.23 169.34 507.55C169.48 507.87 169.58 508.09 169.64 508.21C169.7 508.33 169.84 508.6 170.06 509.02C170.28 509.44 170.42 509.71 170.48 509.83C172.13 513.04 172.15 515.76 170.53 518.03Z" fill="#C3001F"/>
<path d="M185.37 527.01C184.66 528.21 183.82 529.12 182.86 529.76C181.9 530.4 181.03 530.76 180.24 530.86C179.45 530.95 178.6 530.9 177.7 530.71C176.52 530.46 175.53 530.1 174.73 529.62C173.05 528.62 171.87 527.43 171.18 526.06C170.49 524.69 170.61 523.22 171.54 521.66C172.09 520.74 172.77 520.13 173.58 519.82C174.82 519.39 175.94 519.47 176.95 520.07C177.26 520.25 177.32 520.5 177.14 520.81C177.12 520.84 176.94 521.02 176.58 521.35C176.22 521.68 175.86 522.16 175.5 522.77C175.14 523.38 175.04 524.06 175.21 524.8C175.38 525.54 175.79 526.11 176.43 526.49C177.08 526.88 177.66 527.07 178.19 527.06C178.72 527.05 179.17 526.92 179.54 526.65C180.07 526.29 180.47 525.88 180.73 525.44C181.21 524.63 181.25 523.71 180.85 522.68C180.45 521.65 179.9 520.7 179.19 519.82C178.48 518.95 177.99 517.9 177.7 516.67C177.42 515.44 177.62 514.25 178.32 513.08C179.51 511.08 181 509.92 182.77 509.62C184.54 509.32 186.44 509.77 188.45 510.97C189.33 511.49 190.17 512.18 190.99 513.02C191.8 513.86 192.02 514.6 191.65 515.22C191.28 515.85 190.84 516.37 190.33 516.78C189.82 517.19 189.43 517.32 189.14 517.15C188.99 517.06 188.92 516.93 188.94 516.78C188.96 516.62 188.96 516.42 188.93 516.18C188.9 515.94 188.72 515.54 188.39 514.98C188.06 514.42 187.72 514.04 187.37 513.83C187.02 513.62 186.78 513.49 186.66 513.44C186.54 513.39 186.31 513.31 185.98 513.21C185.65 513.11 185.33 513.06 185.02 513.06C184.21 513.07 183.6 513.42 183.18 514.12C182.91 514.57 182.81 514.95 182.87 515.26C182.93 515.58 182.97 515.82 183.01 515.99C183.05 516.16 183.15 516.4 183.32 516.71C183.49 517.02 183.61 517.23 183.68 517.35C183.75 517.47 183.91 517.72 184.17 518.12C184.42 518.52 184.59 518.77 184.66 518.89C186.55 521.91 186.79 524.61 185.37 527.01Z" fill="#C3001F"/>
<path d="M187.19 533.74L192.73 523.85C193.94 521.45 194.51 519.68 194.44 518.56C194.42 518.19 194.34 517.88 194.2 517.63C194.07 517.49 194.05 517.33 194.13 517.16C194.39 516.64 195.33 516.48 196.95 516.68C198.57 516.88 199.69 517.14 200.32 517.45C200.95 517.77 201.19 518.11 201.05 518.47C200.76 519.05 199.85 520.65 198.35 523.28C196.84 525.91 195.33 528.72 193.83 531.7C192.33 534.68 191.56 536.61 191.51 537.5C191.52 537.68 191.48 537.85 191.41 537.99C191.22 538.37 190.62 538.3 189.6 537.78C188.58 537.26 187.68 536.45 186.9 535.33C186.69 535.05 186.79 534.52 187.19 533.74ZM201.46 513.45L200.51 512.92C199.78 512.55 199.22 512.51 198.81 512.77C198.71 512.83 198.63 512.84 198.54 512.8C198.19 512.62 198.34 511.89 198.99 510.6C199.64 509.31 200.23 508.59 200.77 508.42C201.31 508.26 202.03 508.4 202.93 508.85C203.83 509.3 204.36 509.78 204.51 510.27C204.66 510.76 204.54 511.4 204.15 512.18C203.76 512.96 203.36 513.44 202.97 513.62C202.58 513.82 202.07 513.76 201.46 513.45Z" fill="#C3001F"/>
<path d="M215.65 532.1L213.2 537.82C211.56 541.81 210.98 544.37 211.46 545.51C211.52 545.67 211.52 545.83 211.46 545.98C211.28 546.43 210.29 546.29 208.49 545.55C206.7 544.81 205.98 543.85 206.33 542.67C206.41 542.39 206.63 541.83 206.97 540.99L210.09 533.87C210.18 533.66 210.11 533.51 209.88 533.42C208.55 532.87 207.13 532.76 205.63 533.09C204.13 533.42 203.12 534.21 202.6 535.47C202.33 536.13 202.27 536.75 202.42 537.34C202.57 537.93 202.89 538.32 203.37 538.52C203.86 538.72 204.3 538.78 204.71 538.7C205.11 538.62 205.35 538.58 205.42 538.57C205.87 538.83 205.89 539.45 205.47 540.46C205.06 541.46 204.29 542.1 203.18 542.36C202.07 542.62 201.03 542.56 200.09 542.17C199.15 541.78 198.4 541.27 197.87 540.63C197.34 539.99 197.01 539.38 196.89 538.81C196.77 538.24 196.73 537.62 196.77 536.97C196.86 536.2 197.01 535.56 197.22 535.05C198.08 532.95 199.38 531.52 201.12 530.77C202.86 530.01 204.8 529.76 206.94 530.01C209.69 530.51 211.22 530.56 211.51 530.15C211.73 529.86 212 529.32 212.32 528.54C212.97 526.95 212.55 525.85 211.04 525.23C210.4 524.97 209.74 524.95 209.06 525.18C208.38 525.41 207.91 525.85 207.64 526.51L207.45 527.69C207.18 528.18 206.56 528.27 205.58 527.97L205.1 527.83C204.27 527.49 203.7 526.99 203.4 526.34C203.1 525.69 203.1 524.99 203.41 524.24C203.61 523.76 203.97 523.29 204.5 522.82C205.03 522.36 205.6 522.03 206.19 521.86C206.78 521.68 207.6 521.64 208.65 521.74C209.7 521.84 210.66 522.06 211.52 522.42C212.38 522.78 213.04 523.08 213.49 523.33C213.94 523.58 214.53 523.99 215.25 524.55C215.98 525.11 216.49 525.82 216.77 526.67C217.05 527.52 217.07 528.31 216.82 529.03C216.59 529.76 216.19 530.78 215.65 532.1Z" fill="#C3001F"/>
<path d="M215.28 547.78C216.79 544.58 218.24 540.63 219.63 535.94C221.02 531.25 221.79 528.17 221.94 526.69C222.06 526.29 222.55 526.21 223.42 526.47C224.75 526.86 225.47 527.67 225.58 528.88C225.58 528.98 225.64 529.05 225.75 529.08C225.87 529.11 225.96 529.11 226.04 529.06C227.23 528.33 228.76 528.24 230.63 528.8C232.5 529.36 233.84 530.31 234.63 531.66C235.42 533.01 235.53 534.66 234.95 536.62C234.6 537.8 234.01 539.45 233.18 541.57C232.35 543.69 231.78 545.28 231.47 546.33C230.73 548.85 230.58 550.78 231.03 552.13C231.1 552.32 231.11 552.49 231.06 552.65C230.94 553.05 230.48 553.14 229.67 552.9C226.09 551.84 224.81 549.6 225.82 546.19C226.21 544.89 227.02 543.15 228.26 540.98C229.5 538.81 230.29 537.12 230.65 535.91C231.39 533.43 230.8 531.9 228.9 531.34C227.98 531.07 227.19 531.15 226.54 531.6C225.89 532.05 225.42 532.65 225.14 533.39C224.86 534.14 224.4 535.56 223.78 537.68C222.82 540.91 222.09 543.75 221.59 546.2L221.37 547.25C221.11 548.12 220.39 548.64 219.19 548.81C217.99 548.98 217.01 548.95 216.25 548.73C215.48 548.49 215.16 548.18 215.28 547.78Z" fill="#C3001F"/>
<path d="M255.56 534.75L255.48 535.43L263.41 536.36L263.42 536.26C263.54 535.49 263.67 534.52 263.81 533.35C263.95 532.17 264.05 531.14 264.13 530.25C264.2 529.36 264.26 528.61 264.3 527.99C264.34 527.38 264.37 526.84 264.38 526.38C264.39 525.92 264.39 525.57 264.39 525.33C264.39 525.09 264.4 524.87 264.42 524.67C264.44 524.48 264.63 524.27 264.99 524.05C266.54 523.19 268.2 522.86 269.96 523.06C271.06 523.19 271.59 523.46 271.54 523.88C271.54 523.91 271.49 524.09 271.39 524.4C270.47 527.39 269.61 531.58 268.83 536.97C268.11 542.37 267.73 545.26 267.68 545.64C267.1 550.63 266.96 554.12 267.28 556.11C267.34 556.38 267.36 556.6 267.34 556.78C267.32 556.96 267.18 557.14 266.91 557.34C265.71 557.98 264.24 558.2 262.47 558C261.33 557.87 260.74 557.37 260.69 556.52C260.65 556.06 260.69 555.35 260.8 554.41C260.91 553.46 261.13 552.01 261.47 550.06C261.8 548.11 262.29 544.69 262.92 539.81L255.08 538.89C254.22 546.23 253.83 551.4 253.9 554.41C253.81 555.18 253.05 555.74 251.62 556.08C250.19 556.42 249.02 556.54 248.13 556.43C247.23 556.32 246.8 556.13 246.84 555.84C246.86 555.65 246.94 555.41 247.06 555.13C247.79 553.84 248.7 548.44 249.82 538.91L249.89 538.28L247.25 537.97C247.01 537.94 246.9 537.83 246.93 537.64C246.94 537.58 247.03 537.33 247.2 536.91C247.37 536.49 247.71 536.02 248.21 535.49C248.71 534.96 249.23 534.73 249.77 534.79L250.26 534.85C251 528.51 251.08 524.82 250.51 523.77L250.36 523.46C250.2 523.28 250.13 523.07 250.16 522.83C250.19 522.59 250.38 522.41 250.72 522.28C251.2 522.04 252.03 521.85 253.22 521.69C254.4 521.53 255.46 521.51 256.38 521.62C257.3 521.73 257.74 522.01 257.69 522.46L257.67 522.6C256.91 525.92 256.21 529.97 255.56 534.75Z" fill="#C3001F"/>
<path d="M277.63 539.64C276.85 539.69 276.28 539.72 275.94 539.74C275.59 539.76 275.42 539.68 275.42 539.48C275.42 539.28 275.5 539.09 275.68 538.89C277.57 536.95 280.8 535.93 285.37 535.85C286.93 535.82 288.17 535.95 289.08 536.22L289.53 536.36C289.89 536.52 290.08 536.69 290.08 536.89C290.08 537.05 289.98 537.18 289.77 537.28C288.96 537.55 288.19 537.98 287.45 538.56C286.71 539.14 286.34 539.54 286.34 539.77L286.62 540.11C287.59 540.68 288.35 541.59 288.9 542.84C289.45 544.09 289.76 545.21 289.84 546.18L289.96 547.69C290.02 550.9 289.24 553.55 287.62 555.65C286 557.75 283.77 558.83 280.91 558.88C279.47 558.91 278.21 558.65 277.15 558.12C276.09 557.59 275.3 556.98 274.79 556.29C274.28 555.6 273.87 554.82 273.55 553.96C273.17 552.77 272.97 551.53 272.94 550.25C272.92 548.97 273.1 547.68 273.48 546.38C273.86 545.08 274.31 544.11 274.83 543.49C275.35 542.87 275.93 542.35 276.59 541.95C277.42 541.45 278.1 541.19 278.61 541.19C279.12 541.18 279.38 541.29 279.38 541.52L279.12 542.01C278.47 542.87 278.02 543.97 277.76 545.34C277.5 546.7 277.38 547.91 277.4 548.97C277.42 550.02 277.56 551.07 277.82 552.1C278.08 553.13 278.36 553.9 278.67 554.39C278.98 554.89 279.33 555.26 279.73 555.51C280.31 555.89 280.91 556.07 281.54 556.06C282.17 556.05 282.78 555.77 283.37 555.23C283.96 554.69 284.39 553.97 284.64 553.09C285.15 551.46 285.39 549.79 285.36 548.07C285.31 545.35 284.64 543.25 283.33 541.79C282.03 540.31 280.13 539.59 277.63 539.64Z" fill="#C3001F"/>
<path d="M295.04 557.83C295.19 554.29 294.99 550.09 294.44 545.23C293.9 540.37 293.41 537.23 292.98 535.81C292.93 535.39 293.36 535.13 294.25 535.03C295.62 534.88 296.6 535.34 297.17 536.41C297.21 536.5 297.29 536.54 297.41 536.53C297.53 536.52 297.62 536.48 297.67 536.4C298.48 535.27 299.86 534.59 301.8 534.37C303.74 534.15 305.34 534.51 306.6 535.45C307.85 536.39 308.6 537.87 308.82 539.9C308.96 541.12 309.05 542.87 309.11 545.15C309.17 547.43 309.26 549.11 309.38 550.21C309.67 552.82 310.29 554.66 311.22 555.73C311.36 555.88 311.44 556.03 311.45 556.19C311.5 556.61 311.1 556.86 310.27 556.96C306.56 557.38 304.51 555.81 304.12 552.27C303.97 550.92 304.04 549 304.34 546.52C304.64 544.04 304.72 542.17 304.57 540.92C304.28 538.34 303.15 537.17 301.18 537.39C300.22 537.5 299.53 537.88 299.11 538.55C298.69 539.22 298.49 539.95 298.52 540.74C298.55 541.54 298.69 543.03 298.93 545.22C299.31 548.57 299.74 551.47 300.22 553.93L300.43 554.98C300.53 555.88 300.07 556.64 299.03 557.26C297.99 557.88 297.08 558.24 296.29 558.33C295.51 558.41 295.09 558.25 295.04 557.83Z" fill="#C3001F"/>
<path d="M328.15 546.16C328.41 547.36 328.41 548.46 328.14 549.47C327.88 550.47 327.51 551.25 327.03 551.8C326.55 552.35 325.95 552.83 325.24 553.25C324.34 553.77 323.45 554.13 322.56 554.32C320.09 554.85 318.05 554.24 316.45 552.5C314.85 550.76 313.71 548.34 313.05 545.25C312.39 542.16 312.53 539.26 313.46 536.54C314.4 533.82 316.32 532.15 319.24 531.52C321.89 530.95 323.89 531.56 325.26 533.36C325.8 534.04 326.15 534.72 326.3 535.4C326.45 536.08 326.53 536.63 326.56 537.03C326.59 537.44 326.51 538.08 326.33 538.94C326.15 539.81 325.83 540.62 325.38 541.38C324.93 542.14 324.13 542.94 322.99 543.78C321.85 544.62 320.45 545.32 318.78 545.87C318.54 545.92 318.45 546.06 318.5 546.28C318.56 546.56 318.75 546.96 319.06 547.48C319.37 547.99 319.68 548.41 320 548.74C320.84 549.49 321.89 549.73 323.15 549.45C324.41 549.18 325.39 548.51 326.08 547.43C326.45 546.85 326.7 546.19 326.85 545.43C326.91 545.15 327.04 544.99 327.23 544.95C327.42 544.91 327.61 545.05 327.81 545.37C327.99 545.72 328.11 545.97 328.15 546.16ZM317.18 541.9L317.48 543.08C317.52 543.27 317.66 543.34 317.89 543.29C318.81 542.99 319.58 542.56 320.19 541.98C320.8 541.4 321.23 540.8 321.47 540.19C321.92 538.87 322.09 537.77 321.96 536.9L321.88 536.32C321.51 534.61 320.7 533.89 319.43 534.16C318.49 534.36 317.82 534.97 317.42 535.98C316.76 537.59 316.68 539.56 317.18 541.9Z" fill="#C3001F"/>
<path d="M346.15 560.96C346.27 561.33 346.16 561.57 345.81 561.68L345.77 561.69C344.83 561.99 343.64 561.98 342.23 561.65C340.81 561.32 339.96 560.69 339.66 559.77C339.36 558.84 339.39 557.06 339.74 554.41C340.09 551.76 340.15 550.05 339.9 549.28C339.63 548.45 338.78 547.07 337.35 545.15C335.51 542.64 334.02 540.6 332.9 539.02C331.78 537.44 330.68 536.08 329.61 534.94C328.54 533.81 327.82 533.16 327.45 533L326.92 532.81C326.54 532.72 326.32 532.58 326.25 532.36C326.11 531.93 326.59 531.29 327.7 530.44C328.8 529.59 329.83 529.02 330.77 528.72C331.2 528.58 331.67 528.84 332.2 529.49C333.18 530.78 334.38 532.6 335.8 534.97C338.94 539.75 340.69 542.08 341.07 541.96C341.33 541.88 341.5 540.63 341.6 538.22C341.7 535.81 341.53 533.94 341.11 532.61C340.37 530.3 339.3 529.14 337.92 529.14C337.61 529.17 337.42 529.06 337.34 528.81C337.16 528.26 337.67 527.51 338.85 526.57C340.03 525.63 341.17 524.99 342.26 524.64C343.21 524.34 343.89 524.85 344.31 526.18C344.64 527.2 344.82 528.45 344.85 529.94C344.88 531.43 344.85 532.62 344.76 533.52C344.67 534.42 344.4 536.51 343.95 539.8C343.5 543.09 343.18 545.96 342.98 548.4C342.83 551.3 343.19 554.1 344.05 556.78C344.5 558.2 344.96 559.23 345.42 559.86C345.88 560.5 346.12 560.87 346.15 560.96Z" fill="#C3001F"/>
<path d="M375.49 521.5C376 521.24 376.61 521.8 377.31 523.19C378.02 524.58 378.41 525.94 378.48 527.28C378.56 528.62 378.41 529.77 378.03 530.73C377.65 531.68 377.14 532.57 376.47 533.38C374.29 536.2 371.6 537.53 368.39 537.39C366.76 537.31 365.36 536.94 364.18 536.29C363 535.64 361.86 534.72 360.75 533.54C359.07 531.78 357.66 529.75 356.49 527.47C355.33 525.19 354.44 522.95 353.83 520.75C353.22 518.55 352.87 516.34 352.78 514.11C352.69 511.88 353.13 509.83 354.1 507.96C355.07 506.08 356.56 504.64 358.57 503.61C359.43 503.17 360.4 502.87 361.47 502.7C362.55 502.53 363.5 502.52 364.31 502.67C365.13 502.82 366 503.24 366.92 503.93C367.85 504.62 368.63 505.59 369.26 506.83C369.94 508.16 370.25 509.51 370.21 510.87C370.19 511.5 369.99 512.16 369.6 512.85C369.21 513.54 368.61 514.09 367.81 514.5C366.58 515.13 365.41 514.98 364.29 514.05C363.84 513.7 363.48 513.25 363.2 512.7C362.92 512.15 362.93 511.74 363.24 511.48C363.56 511.17 363.74 510.68 363.8 509.99C363.86 509.31 363.71 508.62 363.36 507.93C363.08 507.38 362.7 506.97 362.23 506.71C361.35 506.25 360.43 506.26 359.47 506.75C358.51 507.24 357.87 508.17 357.57 509.52C357.26 510.88 357.28 512.38 357.61 514.02C358.28 517.32 359.23 520.18 360.46 522.6C361.69 525.03 362.99 526.82 364.36 527.98C366.04 529.42 367.6 530.15 369.07 530.16C369.98 530.17 370.91 529.93 371.85 529.45C373.43 528.64 374.46 527.16 374.94 524.98C375.17 524.1 375.24 523.15 375.16 522.14C375.16 521.83 375.27 521.61 375.49 521.5Z" fill="#C3001F"/>
<path d="M390.5 507.71L393.84 512.96C396.21 516.56 397.99 518.49 399.2 518.74C399.37 518.78 399.5 518.87 399.59 519.01C399.86 519.42 399.18 520.15 397.56 521.22C395.94 522.29 394.74 522.34 393.96 521.37C393.78 521.14 393.43 520.65 392.93 519.89L388.81 513.29C388.69 513.1 388.52 513.07 388.32 513.2C387.11 513.99 386.22 515.1 385.65 516.53C385.07 517.95 385.16 519.24 385.91 520.37C386.3 520.97 386.78 521.37 387.35 521.58C387.92 521.79 388.42 521.75 388.86 521.46C389.3 521.17 389.6 520.84 389.77 520.46C389.93 520.08 390.03 519.86 390.06 519.8C390.52 519.57 391.05 519.91 391.65 520.82C392.25 521.73 392.34 522.72 391.92 523.78C391.51 524.85 390.87 525.66 390.02 526.22C389.16 526.78 388.32 527.1 387.49 527.18C386.66 527.26 385.97 527.19 385.43 526.96C384.89 526.73 384.36 526.42 383.84 526.02C383.25 525.51 382.81 525.03 382.51 524.57C381.27 522.68 380.82 520.8 381.18 518.93C381.54 517.06 382.42 515.32 383.84 513.69C385.81 511.7 386.71 510.47 386.54 510C386.42 509.65 386.13 509.13 385.67 508.42C384.73 506.98 383.58 506.71 382.22 507.6C381.64 507.98 381.26 508.52 381.06 509.21C380.87 509.9 380.96 510.54 381.36 511.14L382.23 511.97C382.48 512.46 382.21 513.03 381.41 513.67L381.02 513.98C380.27 514.47 379.54 514.67 378.83 514.55C378.12 514.43 377.55 514.04 377.1 513.36C376.82 512.93 376.63 512.36 376.55 511.66C376.47 510.96 376.52 510.31 376.71 509.72C376.9 509.13 377.33 508.43 378 507.62C378.67 506.81 379.4 506.15 380.18 505.63C380.96 505.12 381.58 504.75 382.04 504.52C382.5 504.29 383.17 504.04 384.05 503.75C384.92 503.47 385.79 503.45 386.66 503.69C387.52 503.94 388.18 504.37 388.64 504.98C389.1 505.62 389.72 506.52 390.5 507.71Z" fill="#C3001F"/>
<path d="M400.67 498.31C400.66 498.49 400.7 498.63 400.79 498.75C400.88 498.86 401.18 498.8 401.7 498.55C402.22 498.3 402.91 498.2 403.79 498.24C404.67 498.28 405.45 498.46 406.14 498.79C407.46 499.43 408.46 500.12 409.14 500.87L409.57 501.33C412.06 504.19 414.19 505.81 415.95 506.18C416.21 506.26 416.37 506.34 416.43 506.42C416.65 506.7 416.44 507.1 415.78 507.63C413.81 509.21 412.2 509.78 410.95 509.33C410.38 509.2 409.36 508.22 407.88 506.37L407.12 505.42C405.23 503.07 403.66 501.66 402.39 501.18C401.76 500.98 401.24 501.04 400.83 501.37C400.42 501.7 400.3 502.43 400.47 503.56C400.64 504.69 400.94 505.52 401.37 506.05C403.07 508.17 404.31 509.61 405.07 510.37C405.83 511.13 406.23 511.52 406.25 511.55C406.84 512.28 406.83 513.22 406.23 514.37C405.63 515.52 404.92 516.42 404.09 517.08C403.79 517.32 403.47 517.24 403.15 516.84L403.03 516.69C401.1 513.13 397.45 508 392.08 501.31C390.32 499.11 388.78 497.29 387.47 495.85L386.79 495.15C386.18 494.48 385.56 493.98 384.93 493.65C384.3 493.32 383.82 493.17 383.49 493.19L383.06 493.23C382.82 493.26 382.64 493.21 382.54 493.09C382.21 492.69 382.41 491.78 383.13 490.37C383.85 488.96 384.62 487.93 385.44 487.27C385.83 486.99 386.16 486.99 386.4 487.24C387.33 488.16 389.05 490.19 391.58 493.34C394.11 496.49 396.05 499.05 397.41 501.03C397.65 501.33 397.82 501.45 397.91 501.37C398 501.29 398.03 501.03 398 500.58C397.97 500.13 397.95 499.39 397.95 498.35C397.95 497.31 398.04 496.03 398.23 494.51C398.42 492.99 398.77 492.02 399.3 491.59C399.83 491.17 400.46 490.89 401.2 490.75C401.94 490.62 402.41 490.67 402.61 490.93L402.44 491.51C401.51 493.09 400.92 495.36 400.67 498.31Z" fill="#C3001F"/>
<path d="M424.75 489.71C425.6 490.6 426.18 491.54 426.49 492.53C426.79 493.52 426.88 494.37 426.76 495.1C426.64 495.82 426.39 496.55 426 497.28C425.51 498.2 424.94 498.98 424.29 499.6C422.47 501.35 420.42 501.9 418.14 501.27C415.86 500.63 413.62 499.17 411.43 496.89C409.24 494.61 407.83 492.07 407.2 489.26C406.57 486.45 407.32 484.02 409.47 481.96C411.42 480.08 413.45 479.55 415.56 480.35C416.38 480.64 417.03 481.04 417.51 481.54C417.99 482.04 418.35 482.46 418.59 482.79C418.83 483.12 419.1 483.71 419.4 484.54C419.7 485.37 419.86 486.23 419.87 487.12C419.89 488.01 419.63 489.1 419.1 490.42C418.57 491.74 417.75 493.07 416.62 494.42C416.45 494.59 416.44 494.75 416.6 494.91C416.8 495.12 417.17 495.36 417.7 495.64C418.23 495.91 418.72 496.11 419.16 496.22C420.27 496.42 421.28 496.07 422.22 495.17C423.15 494.27 423.63 493.19 423.65 491.91C423.66 491.23 423.53 490.52 423.25 489.8C423.16 489.53 423.18 489.33 423.32 489.19C423.46 489.06 423.7 489.07 424.03 489.25C424.38 489.42 424.62 489.57 424.75 489.71ZM413.18 491.86L414.06 492.71C414.19 492.85 414.35 492.84 414.52 492.67C415.15 491.93 415.57 491.16 415.79 490.34C416.01 489.52 416.06 488.79 415.93 488.15C415.62 486.79 415.18 485.77 414.62 485.1L414.25 484.65C413.04 483.39 411.97 483.21 411.03 484.1C410.33 484.77 410.09 485.63 410.28 486.7C410.55 488.41 411.52 490.13 413.18 491.86Z" fill="#C3001F"/>
<path d="M436.31 475.67C437.35 476.59 438.1 477.58 438.55 478.64C439 479.7 439.2 480.62 439.14 481.42C439.09 482.22 438.88 483.04 438.52 483.88C438.05 484.99 437.51 485.9 436.9 486.6C435.61 488.06 434.22 489.01 432.75 489.43C431.27 489.85 429.86 489.46 428.5 488.26C427.7 487.55 427.22 486.77 427.07 485.91C426.87 484.61 427.17 483.53 427.94 482.65C428.18 482.38 428.43 482.36 428.7 482.6C428.72 482.62 428.87 482.84 429.13 483.25C429.39 483.66 429.79 484.1 430.33 484.58C430.86 485.05 431.51 485.27 432.27 485.24C433.03 485.21 433.66 484.91 434.16 484.35C434.66 483.79 434.95 483.24 435.05 482.72C435.14 482.2 435.09 481.73 434.89 481.32C434.63 480.73 434.31 480.27 433.92 479.92C433.22 479.3 432.32 479.09 431.23 479.29C430.14 479.49 429.11 479.86 428.12 480.39C427.13 480.92 426.01 481.22 424.75 481.27C423.49 481.32 422.35 480.9 421.33 480C419.58 478.45 418.72 476.79 418.75 474.99C418.78 473.19 419.58 471.41 421.13 469.66C421.81 468.9 422.63 468.19 423.61 467.55C424.59 466.91 425.35 466.83 425.9 467.31C426.45 467.79 426.88 468.32 427.19 468.9C427.5 469.48 427.55 469.89 427.33 470.14C427.21 470.28 427.08 470.32 426.93 470.26C426.78 470.21 426.58 470.18 426.34 470.16C426.09 470.15 425.67 470.25 425.06 470.47C424.45 470.69 424.01 470.96 423.74 471.26C423.47 471.56 423.3 471.77 423.22 471.88C423.14 471.99 423.02 472.2 422.87 472.5C422.71 472.8 422.6 473.11 422.55 473.42C422.41 474.22 422.64 474.88 423.25 475.42C423.64 475.76 423.99 475.94 424.32 475.94C424.64 475.94 424.89 475.94 425.07 475.94C425.25 475.94 425.5 475.88 425.84 475.77C426.17 475.66 426.4 475.59 426.53 475.54C426.66 475.49 426.94 475.38 427.38 475.21C427.82 475.03 428.1 474.92 428.23 474.87C431.52 473.56 434.22 473.83 436.31 475.67Z" fill="#C3001F"/>
<path d="M485.21 435.74C451.93 517.95 372.59 575.81 279.99 575.81C187.39 575.81 108.05 517.95 74.77 435.74H64.35C98.19 523.34 181.98 585.34 279.99 585.34C378 585.34 461.79 523.33 495.63 435.74H485.21Z" fill="#C3001F"/>
<path d="M304.8 378.7L313.07 364.38L304.81 350.07H304.8L296.52 335.74H280V335.76H263.45L246.93 364.38L255.2 378.7V378.72L262.76 391.82L263.45 393.02H280V393.04H296.52L304.8 378.7ZM296.52 326.51L307.34 307.78C308.2 306.3 309.75 305.47 311.34 305.47V305.46H324.95C327.51 305.46 329.59 307.54 329.59 310.1C329.59 312.66 327.52 314.74 324.95 314.74H314L304.53 331.14L312.8 345.45V345.47L321.05 359.76H337.6V359.78H359.48L370.41 378.71V378.73L381.34 397.66L370.41 416.59V416.61L359.48 435.54H337.6V435.56H327V435.37C327 432.29 326.7 429.26 326.12 426.29H337.6V426.31H354.13L362.41 411.98L362.42 411.99L370.68 397.67L362.42 383.36H362.41L354.13 369.03H337.6V369.05H321.05L312.8 383.34V383.36L302.26 401.61C304 402.75 305.67 404.04 307.26 405.47H307.33L308.69 406.83C316.54 414.68 320.47 425.03 320.47 435.37C320.47 445.71 316.55 456.06 308.69 463.91L280.15 492.45L251.61 463.91C243.76 456.05 239.83 445.71 239.83 435.37C239.83 425.03 243.76 414.68 251.61 406.83L252.97 405.47H253.04C254.56 404.09 256.16 402.85 257.83 401.74L247.21 383.35H247.2L238.92 369.02H222.4V369.04H205.85L189.33 397.66L205.85 426.28H222.4V426.3H234.17C233.59 429.26 233.29 432.29 233.29 435.37V435.55H222.39V435.57H200.53L178.65 397.67L200.53 359.78H203.18H222.38V359.8H238.92L255.45 331.17L245.98 314.76H235.04C232.48 314.76 230.4 312.68 230.4 310.12C230.4 307.56 232.48 305.48 235.04 305.48H248.65V305.49C250.25 305.49 251.8 306.32 252.65 307.8L263.46 326.52H280V326.54L296.52 326.51ZM212.78 378.05H233.69L244.15 396.16H237.31L230.28 383.98H216.21L212.78 378.05ZM329.4 384H343.47L350.5 396.18H357.34L346.88 378.07H325.97L329.4 384ZM285.91 428.45C284.43 426.97 282.39 426.06 280.14 426.06C277.89 426.06 275.84 426.97 274.37 428.45C272.9 429.93 271.98 431.97 271.98 434.22C271.98 436.47 272.89 438.51 274.37 439.99C275.85 441.47 277.89 442.38 280.14 442.38C282.39 442.38 284.43 441.47 285.91 439.99C287.38 438.51 288.3 436.47 288.3 434.22C288.3 431.97 287.39 429.93 285.91 428.45ZM280.14 420.12C284.03 420.12 287.56 421.7 290.11 424.25C292.66 426.8 294.24 430.33 294.24 434.22C294.24 438.11 292.66 441.64 290.11 444.19C287.56 446.74 284.03 448.32 280.14 448.32C276.25 448.32 272.72 446.74 270.17 444.19C267.62 441.64 266.04 438.11 266.04 434.22C266.04 430.33 267.62 426.8 270.17 424.25C272.72 421.71 276.25 420.12 280.14 420.12ZM270.39 344.79H291.3L301.76 362.9H294.92L287.89 350.72H273.82L270.39 344.79ZM258.16 413.36L258.12 413.4C252.1 419.44 249.09 427.39 249.09 435.35C249.09 443.32 252.11 451.29 258.15 457.33L280.13 479.31L302.11 457.33C308.15 451.29 311.17 443.32 311.17 435.35C311.17 427.39 308.16 419.44 302.14 413.4L302.1 413.36C296.06 407.32 288.09 404.3 280.12 404.3C272.17 404.3 264.2 407.32 258.16 413.36Z" fill="#C3001F"/>
</g>
<defs>
<clipPath id="clip0_210_8">
<rect width="559.98" height="636.56" fill="white"/>
</clipPath>
</defs>
</svg>
